/* XPM */
static char *icon_xpm[] = {
/* columns rows colors chars-per-pixel */
"32 32 11 1",
"  c Black",
". c #5050FF",
"X c #C60000",
"o c red",
"O c #939300",
"+ c #FE6A2B",
"@ c #D5D500",
"# c yellow",
"$ c #8080FF",
"% c #80BFFF",
"& c #D5D5AA",
/* pixels */
"                                ",
"     o         #         $      ",
"    ooo       ###       $$$     ",
"    ooo       ###       $$$     ",
"   &&o&&     &&#&&     &&$&&    ",
"   &&&&&     &&&&&     &&&&&    ",
"  &&&&&&&   &&&&&&&   &&&&&&&   ",
"  &&&&&&&   &&&&&&&   &&&&&&&   ",
"  XX&&&++   OO&&&##   ..&&&%%   ",
"  XXooo++   OO@@@##   ..$$$%%   ",
"  XXooo++   OO@@@##   ..$$$%%   ",
"  XXooo++   OO@@@##   ..$$$%%   ",
"  XXooo++   OO@@@##   ..$$$%%   ",
"  XXooo++   OO@@@##   ..$$$%%   ",
"  XXooo++   OO@@@##   ..$$$%%   ",
"  XXooo++   OO@@@##   ..$$$%%   ",
"  XXooo++   OO@@@##   ..$$$%%   ",
"  XXooo++   OO@@@##   ..$$$%%   ",
"  XXooo++   OO@@@##   ..$$$%%   ",
"  XXooo++   OO@@@##   ..$$$%%   ",
"  XXooo++   OO@@@##   ..$$$%%   ",
"  XXooo++   OO@@@##   ..$$$%%   ",
"  XXooo++   OO@@@##   ..$$$%%   ",
"  XXooo++   OO@@@##   ..$$$%%   ",
"  XXooo++   OO@@@##   ..$$$%%   ",
"  XXooo++   OO@@@##   ..$$$%%   ",
"  XXooo++   OO@@@##   ..$$$%%   ",
"  XXooo++   OO@@@##   ..$$$%%   ",
"  XXooo++   OO@@@##   ..$$$%%   ",
"   Xooo+     O@@@#     .$$$%    ",
"                                ",
"                                "
};
